<svg width="94" height="94" viewBox="0 0 94 94" fill="none" xmlns="http://www.w3.org/2000/svg">
<circle cx="47" cy="47" r="47" fill="#F2F3F4"/>
<path d="M59.5 26.1665H34.5C32.2084 26.1665 30.3334 28.0415 30.3334 30.3332V63.6665C30.3334 65.9582 32.2084 67.8332 34.5 67.8332H59.5C61.7917 67.8332 63.6667 65.9582 63.6667 63.6665V30.3332C63.6667 28.0415 61.7917 26.1665 59.5 26.1665ZM59.5 38.6665H34.5V30.3332H59.5V38.6665ZM40.75 46.9998H36.5834V42.8332H40.75V46.9998ZM49.0834 46.9998H44.9167V42.8332H49.0834V46.9998ZM40.75 55.3332H36.5834V51.1665H40.75V55.3332ZM49.0834 55.3332H44.9167V51.1665H49.0834V55.3332ZM40.75 63.6665H36.5834V59.4998H40.75V63.6665ZM49.0834 63.6665H44.9167V59.4998H49.0834V63.6665ZM57.4167 46.9998H53.25V42.8332H57.4167V46.9998ZM57.4167 55.3332H53.25V51.1665H57.4167V55.3332ZM57.4167 63.6665H53.25V59.4998H57.4167V63.6665Z" fill="#C20E1A"/>
<path d="M57.4167 32.4165H53.25V36.5832H57.4167V32.4165Z" fill="#C20E1A"/>
</svg>
