<svg width="23" height="22" viewBox="0 0 23 22" fill="none" xmlns="http://www.w3.org/2000/svg">
<path d="M18.1199 16.4312H9.29006L8.77735 14.3803H20.3548L22.8818 4.2724H6.25039L5.37505 0.770996H0.646484V2.2215H4.24252L7.81268 16.5019C6.7681 16.7612 5.99138 17.7065 5.99138 18.8301C5.99138 20.153 7.06758 21.2292 8.3904 21.2292C9.71319 21.2292 10.7894 20.153 10.7894 18.8301C10.7894 18.4933 10.7194 18.1727 10.5935 17.8816H15.9168C15.791 18.1727 15.7209 18.4933 15.7209 18.8301C15.7209 20.153 16.7971 21.2292 18.12 21.2292C19.4427 21.2292 20.519 20.153 20.519 18.8301C20.5189 17.5074 19.4427 16.4312 18.1199 16.4312ZM13.1117 12.9298H11.5013L11.1416 10.0516H13.1117V12.9298H13.1117ZM18.5351 5.72287H21.024L20.3045 8.60108H18.1754L18.5351 5.72287ZM17.9941 10.0516H19.9418L19.2223 12.9298H17.6343L17.9941 10.0516ZM14.5621 5.72287H17.0733L16.7136 8.60108H14.5622V5.72287H14.5621ZM14.5621 10.0516H16.5323L16.1725 12.9298H14.5622V10.0516H14.5621ZM13.1117 5.72287V8.60108H10.9603L10.6005 5.72287H13.1117ZM6.61301 5.72287H9.13872L9.49848 8.60108H7.33258L6.61301 5.72287ZM7.6952 10.0516H9.67983L10.0396 12.9298H8.41477L7.6952 10.0516ZM8.3904 19.7787C7.8674 19.7787 7.44189 19.3532 7.44189 18.8302C7.44189 18.3072 7.8674 17.8817 8.3904 17.8817C8.91341 17.8817 9.33892 18.3072 9.33892 18.8302C9.33892 19.3532 8.91341 19.7787 8.3904 19.7787ZM18.1199 19.7787C17.5969 19.7787 17.1714 19.3532 17.1714 18.8302C17.1714 18.3072 17.5969 17.8817 18.1199 17.8817C18.6429 17.8817 19.0684 18.3072 19.0684 18.8302C19.0684 19.3532 18.6429 19.7787 18.1199 19.7787Z" fill="#C20E1A"/>
</svg>
