<svg width="25" height="16" viewBox="0 0 25 16" fill="none" xmlns="http://www.w3.org/2000/svg">
<path fill-rule="evenodd" clip-rule="evenodd" d="M10.8262 10.5074L6.05326 15.2803C5.76036 15.5732 5.28549 15.5732 4.9926 15.2803L0.219626 10.5074C-0.0732675 10.2145 -0.0732675 9.73959 0.219626 9.4467C0.512519 9.15381 0.987393 9.15381 1.28029 9.4467L4.77293 12.9393L4.77293 0.75L6.27293 0.75L6.27293 12.9393L9.76557 9.4467C10.0585 9.15381 10.5333 9.15381 10.8262 9.4467C11.1191 9.73959 11.1191 10.2145 10.8262 10.5074Z" fill="#C20E1A"/>
<path fill-rule="evenodd" clip-rule="evenodd" d="M13.2197 4.99264L17.9926 0.21967C18.2855 -0.0732231 18.7604 -0.0732231 19.0533 0.21967L23.8263 4.99264C24.1192 5.28553 24.1192 5.76041 23.8263 6.0533C23.5334 6.34619 23.0585 6.34619 22.7656 6.0533L19.273 2.56066L19.273 14.75L17.773 14.75L17.773 2.56066L14.2803 6.0533C13.9874 6.34619 13.5126 6.34619 13.2197 6.0533C12.9268 5.76041 12.9268 5.28553 13.2197 4.99264Z" fill="#C20E1A"/>
</svg>
