<svg width="18" height="18" viewBox="0 0 18 18" fill="none" xmlns="http://www.w3.org/2000/svg">
<path d="M14.2319 3.33069C13.991 3.33069 13.7949 3.52675 13.7949 3.76768C13.7949 4.00861 13.991 4.20467 14.2319 4.20467C14.4729 4.20467 14.6689 4.00864 14.6689 3.76768C14.6689 3.52672 14.4729 3.33069 14.2319 3.33069Z" fill="#C20E1A"/>
<path d="M9.00005 5.12598C6.86389 5.12598 5.12598 6.86389 5.12598 9.00005C5.12598 11.1362 6.86389 12.8742 9.00005 12.8742C11.1363 12.8742 12.8742 11.1363 12.8742 9.00009C12.8742 6.86393 11.1363 5.12598 9.00005 5.12598Z" fill="#C20E1A"/>
<path d="M13.0656 0H4.93443C2.21358 0 0 2.21358 0 4.93446V13.0656C0 15.7865 2.21358 18 4.93443 18H13.0656C15.7865 18 18 15.7864 18 13.0656V4.93446C18 2.21358 15.7865 0 13.0656 0ZM9 13.9371C6.27768 13.9371 4.06297 11.7223 4.06297 9C4.06297 6.27768 6.27771 4.06301 9 4.06301C11.7223 4.06301 13.9371 6.27771 13.9371 9C13.9371 11.7223 11.7223 13.9371 9 13.9371ZM14.2323 5.26767C13.4053 5.26767 12.7324 4.59478 12.7324 3.7677C12.7324 2.94061 13.4053 2.26768 14.2323 2.26768C15.0594 2.26768 15.7323 2.94057 15.7323 3.76766C15.7323 4.59475 15.0594 5.26767 14.2323 5.26767Z" fill="#C20E1A"/>
</svg>
