<svg width="16" height="12" viewBox="0 0 16 12" fill="none" xmlns="http://www.w3.org/2000/svg">
<path d="M2.5368 3.69046C2.5368 4.3042 2.58771 4.74716 2.68953 5.01935C2.79136 5.29153 2.94409 5.42762 3.14773 5.42762C3.35138 5.42762 3.50143 5.2942 3.59789 5.02735C3.69972 4.76051 3.75063 4.31488 3.75063 3.69046C3.75063 3.07672 3.69972 2.63376 3.59789 2.36157C3.50143 2.08939 3.35138 1.9533 3.14773 1.9533C2.93873 1.9533 2.78332 2.09206 2.6815 2.36958C2.58503 2.6471 2.5368 3.08739 2.5368 3.69046ZM6.17828 3.65844C6.17828 4.83256 5.91301 5.7425 5.38246 6.38826C4.85191 7.02869 4.09629 7.3489 3.11558 7.3489C2.19382 7.3489 1.46231 7.01801 0.921046 6.35624C0.38514 5.68913 0.117188 4.78986 0.117188 3.65844C0.117188 2.48432 0.379781 1.58239 0.904969 0.952635C1.43016 0.317545 2.16703 0 3.11558 0C4.05341 0 4.79832 0.328219 5.35031 0.984656C5.90229 1.64109 6.17828 2.53235 6.17828 3.65844ZM12.0384 0.168112L5.51912 11.8719H3.13166L9.65095 0.168112H12.0384ZM11.4757 8.34957C11.4757 8.96331 11.5266 9.40627 11.6284 9.67845C11.7303 9.95063 11.883 10.0867 12.0866 10.0867C12.3171 10.0867 12.4752 9.93195 12.5609 9.62241C12.652 9.30754 12.6976 8.88326 12.6976 8.34957C12.6976 7.81588 12.652 7.39426 12.5609 7.08472C12.4752 6.76985 12.3171 6.61241 12.0866 6.61241C11.8776 6.61241 11.7222 6.75117 11.6204 7.02869C11.5239 7.3062 11.4757 7.7465 11.4757 8.34957ZM15.1172 8.31754C15.1172 9.48632 14.8492 10.3936 14.3133 11.0394C13.7828 11.6798 13.0298 12 12.0545 12C11.1327 12 10.4012 11.6691 9.85995 11.0073C9.32405 10.3402 9.05609 9.44363 9.05609 8.31754C9.05609 7.14343 9.31869 6.24149 9.84388 5.61174C10.3691 4.97665 11.1059 4.65911 12.0545 4.65911C12.9923 4.65911 13.7372 4.98732 14.2892 5.64376C14.8412 6.3002 15.1172 7.19146 15.1172 8.31754Z" fill="white"/>
</svg>
