<svg width="30" height="30" viewBox="0 0 30 30" fill="none" xmlns="http://www.w3.org/2000/svg">
<g opacity="0.5" clip-path="url(#clip0_73_866)">
<path d="M1.58858 15.7307C1.40229 15.5444 1.28686 15.2873 1.28792 15.0031C1.28793 14.4349 1.74858 13.9742 2.31685 13.9742L27.6902 13.9742C28.2585 13.9742 28.7191 14.4349 28.7191 15.0031C28.7191 15.5714 28.2585 16.0321 27.69 16.0322L2.31703 16.0323C2.03272 16.0314 1.77469 15.9168 1.58858 15.7307Z" fill="black"/>
<path d="M14.2761 28.4183C14.0899 28.232 13.9746 27.975 13.9755 27.6907L13.9744 2.31664C13.9746 1.74819 14.4353 1.28753 15.0035 1.28753C15.5718 1.28753 16.0325 1.74819 16.0326 2.31664L16.0325 27.6898C16.0325 28.2581 15.5718 28.7187 15.0035 28.7187C14.7192 28.7179 14.4614 28.6035 14.2761 28.4183Z" fill="black"/>
</g>
<defs>
<clipPath id="clip0_73_866">
<rect width="20" height="20" fill="white" transform="translate(15 0.85791) rotate(45)"/>
</clipPath>
</defs>
</svg>
