<svg width="18" height="10" viewBox="0 0 18 10" fill="none" xmlns="http://www.w3.org/2000/svg">
<path d="M16.9997 1.94095C17.0049 1.75753 16.9364 1.5774 16.8035 1.42562C16.6706 1.27384 16.48 1.15795 16.2583 1.09405C16.0365 1.03015 15.7947 1.02142 15.5663 1.06908C15.3379 1.11674 15.1344 1.21841 14.9839 1.35997L9.0184 6.76116L3.05501 1.35997C2.96223 1.26205 2.84443 1.18004 2.70889 1.11908C2.57335 1.05813 2.423 1.01953 2.26734 1.00572C2.11168 0.991907 1.95406 1.00317 1.80427 1.03881C1.65448 1.07445 1.51575 1.13369 1.39685 1.21282C1.27795 1.29196 1.1815 1.38929 1.11333 1.49871C1.04517 1.60813 1.00689 1.72729 1.00085 1.84872C0.994808 1.97016 1.02107 2.09125 1.07816 2.20442C1.13525 2.31759 1.22185 2.4204 1.33253 2.50641L8.15381 8.69028C8.26065 8.78739 8.39327 8.86537 8.54273 8.91884C8.69218 8.97231 8.85486 9 9.01945 9C9.18404 9 9.34672 8.97231 9.49617 8.91884C9.64563 8.86537 9.77838 8.78739 9.88522 8.69028L16.7131 2.50641C16.8919 2.35019 16.9936 2.14983 17 1.94095L16.9997 1.94095Z" fill="#C20E1A" stroke="#C20E1A" stroke-width="0.5"/>
</svg>
